<?xml version="1.0" encoding="UTF-8"?>
<svg version="1.1" xmlns="http://www.w3.org/2000/svg" width="225" height="225">
<path d="M0 0 C74.25 0 148.5 0 225 0 C225 74.25 225 148.5 225 225 C150.75 225 76.5 225 0 225 C0 150.75 0 76.5 0 0 Z " fill="#706C68" transform="translate(0,0)"/>
<path d="M0 0 C74.25 0 148.5 0 225 0 C225 21.45 225 42.9 225 65 C150.75 65 76.5 65 0 65 C0 43.55 0 22.1 0 0 Z " fill="#808081" transform="translate(0,160)"/>
<path d="M0 0 C74.25 0 148.5 0 225 0 C225 10.56 225 21.12 225 32 C208.50018999 32.2066694 192.00024597 32.39407696 175.5 32.5625 C173.63061705 32.5815999 173.63061705 32.5815999 171.72346878 32.60108566 C130.78682426 33.01266041 89.87421376 32.98507711 48.9375 32.5625 C47.69495453 32.54968616 46.45240906 32.53687233 45.17221069 32.5236702 C30.11457729 32.36679812 15.05723732 32.19099266 0 32 C0 21.44 0 10.88 0 0 Z " fill="#57595C" transform="translate(0,0)"/>
<path d="M0 0 C7.37901813 0.06154709 14.75804893 0.12150899 22.13708085 0.18137598 C37.25971526 0.30410136 52.38233159 0.42890588 67.50494152 0.55461836 C67.50494152 9.46461836 67.50494152 18.37461836 67.50494152 27.55461836 C-6.74505848 27.55461836 -80.99505848 27.55461836 -157.49505848 27.55461836 C-157.49505848 18.64461836 -157.49505848 9.73461836 -157.49505848 0.55461836 C-142.34729815 0.30505243 -142.34729815 0.30505243 -135.6454491 0.19914961 C-131.15787434 0.12822246 -126.67031161 0.05685161 -122.18280262 -0.01813555 C-81.451283 -0.69663821 -40.73300614 -0.34002247 0 0 Z " fill="#636B72" transform="translate(157.4950584769249,132.44538164138794)"/>
<path d="M0 0 C74.25 0 148.5 0 225 0 C225 8.25 225 16.5 225 25 C150.75 25 76.5 25 0 25 C0 16.75 0 8.5 0 0 Z " fill="#54595D" transform="translate(0,108)"/>
<path d="M0 0 C74.25 0 148.5 0 225 0 C225 7.59 225 15.18 225 23 C150.75 23 76.5 23 0 23 C0 15.41 0 7.82 0 0 Z " fill="#5E554D" transform="translate(0,85)"/>
<path d="M0 0 C74.25 0 148.5 0 225 0 C225 4.29 225 8.58 225 13 C150.75 13 76.5 13 0 13 C0 8.71 0 4.42 0 0 Z " fill="#6F6C68" transform="translate(0,32)"/>
<path d="M0 0 C74.25 0 148.5 0 225 0 C225 3.96 225 7.92 225 12 C150.75 12 76.5 12 0 12 C0 8.04 0 4.08 0 0 Z " fill="#676E75" transform="translate(0,148)"/>
<path d="M0 0 C74.25 0 148.5 0 225 0 C225 2.97 225 5.94 225 9 C150.75 9 76.5 9 0 9 C0 6.03 0 3.06 0 0 Z " fill="#4A4847" transform="translate(0,45)"/>
<path d="M0 0 C74.25 0 148.5 0 225 0 C225 2.97 225 5.94 225 9 C150.75 9 76.5 9 0 9 C0 6.03 0 3.06 0 0 Z " fill="#585F65" transform="translate(0,124)"/>
<path d="M0 0 C74.25 0 148.5 0 225 0 C225 2.31 225 4.62 225 7 C208.50022211 7.20853261 192.00023603 7.39407706 175.5 7.5625 C174.2537447 7.57523327 173.0074894 7.58796654 171.72346878 7.60108566 C130.78682426 8.01266041 89.87421376 7.98507711 48.9375 7.5625 C47.69495453 7.54968616 46.45240906 7.53687233 45.17221069 7.5236702 C30.11458673 7.36679822 15.05720663 7.19273656 0 7 C0 4.69 0 2.38 0 0 Z " fill="#6C6963" transform="translate(0,25)"/>
<path d="M0 0 C74.25 0 148.5 0 225 0 C225 2.31 225 4.62 225 7 C150.75 7 76.5 7 0 7 C0 4.69 0 2.38 0 0 Z " fill="#716A63" transform="translate(0,78)"/>
<path d="M0 0 C74.25 0 148.5 0 225 0 C225 2.31 225 4.62 225 7 C150.75 7 76.5 7 0 7 C0 4.69 0 2.38 0 0 Z " fill="#706A64" transform="translate(0,71)"/>
<path d="M0 0 C74.25 0 148.5 0 225 0 C225 2.31 225 4.62 225 7 C150.75 7 76.5 7 0 7 C0 4.69 0 2.38 0 0 Z " fill="#6E6C6A" transform="translate(0,54)"/>
<path d="M0 0 C74.25 0 148.5 0 225 0 C225 2.31 225 4.62 225 7 C150.75 7 76.5 7 0 7 C0 4.69 0 2.38 0 0 Z " fill="#69696A" transform="translate(0,18)"/>
<path d="M0 0 C74.25 0 148.5 0 225 0 C225 2.31 225 4.62 225 7 C150.75 7 76.5 7 0 7 C0 4.69 0 2.38 0 0 Z " fill="#666A6C" transform="translate(0,108)"/>
<path d="M0 0 C74.25 0 148.5 0 225 0 C225 1.32 225 2.64 225 4 C150.75 4 76.5 4 0 4 C0 2.68 0 1.36 0 0 Z " fill="#6F6B67" transform="translate(0,32)"/>
<path d="M0 0 C6.11944645 0.05577827 12.23891081 0.1094818 18.35837567 0.16319561 C32.21731519 0.28489644 46.07622654 0.40956675 59.93511963 0.53643799 C59.93511963 1.52643799 59.93511963 2.51643799 59.93511963 3.53643799 C-112.25797434 5.11489388 -112.25797434 5.11489388 -165.06488037 3.53643799 C-165.06488037 2.54643799 -165.06488037 1.55643799 -165.06488037 0.53643799 C-157.70213071 0.3871367 -150.33925014 0.24596575 -142.97625732 0.10919189 C-140.49803533 0.06234698 -138.01984165 0.01396597 -135.54168701 -0.03631592 C-90.3665938 -0.94894406 -45.17803778 -0.41501494 0 0 Z " fill="#51585D" transform="translate(165.06488037109375,120.46356201171875)"/>
<path d="M0 0 C5.2315163 0.03508882 10.46307085 0.06317895 15.69462419 0.09210706 C25.53913041 0.14755736 35.38358883 0.20902744 45.22804409 0.2728284 C56.46198809 0.34532878 67.69596964 0.41086235 78.92995894 0.47589886 C101.98158293 0.60950227 125.0331482 0.7515682 148.08468461 0.89946485 C148.08468461 1.88946485 148.08468461 2.87946485 148.08468461 3.89946485 C73.83468461 3.89946485 -0.41531539 3.89946485 -76.91531539 3.89946485 C-76.91531539 2.90946485 -76.91531539 1.91946485 -76.91531539 0.89946485 C-51.26660569 -0.0623893 -25.66377313 -0.17859971 0 0 Z " fill="#434649" transform="translate(76.91531538963318,14.100535154342651)"/>
<path d="M0 0 C74.25 0 148.5 0 225 0 C225 0.99 225 1.98 225 3 C208.50022211 3.20853261 192.00023603 3.39407706 175.5 3.5625 C174.2537447 3.57523327 173.0074894 3.58796654 171.72346878 3.60108566 C130.78682426 4.01266041 89.87421376 3.98507711 48.9375 3.5625 C47.69495453 3.54968616 46.45240906 3.53687233 45.17221069 3.5236702 C30.11458673 3.36679822 15.05720663 3.19273656 0 3 C0 2.01 0 1.02 0 0 Z " fill="#474644" transform="translate(0,29)"/>
<path d="M0 0 C74.25 0 148.5 0 225 0 C225 0.99 225 1.98 225 3 C209.25024446 3.20965221 193.50025887 3.39488887 177.75 3.5625 C176.55467777 3.57523327 175.35935555 3.58796654 174.12781143 3.60108566 C133.13974621 4.03044438 92.17465608 3.96882052 51.1875 3.5625 C49.89369919 3.54968616 48.59989838 3.53687233 47.26689148 3.5236702 C31.51105949 3.36609093 15.75545101 3.19185128 0 3 C0 2.01 0 1.02 0 0 Z " fill="#494847" transform="translate(0,45)"/>
<path d="M0 0 C74.25 0 148.5 0 225 0 C225 0.99 225 1.98 225 3 C150.75 3 76.5 3 0 3 C0 2.01 0 1.02 0 0 Z " fill="#9B9792" transform="translate(0,108)"/>
<path d="M0 0 C74.25 0 148.5 0 225 0 C225 0.99 225 1.98 225 3 C150.75 3 76.5 3 0 3 C0 2.01 0 1.02 0 0 Z " fill="#4F4A46" transform="translate(0,105)"/>
<path d="M0 0 C74.25 0 148.5 0 225 0 C225 0.99 225 1.98 225 3 C150.75 3 76.5 3 0 3 C0 2.01 0 1.02 0 0 Z " fill="#9E9388" transform="translate(0,102)"/>
<path d="M0 0 C74.25 0 148.5 0 225 0 C225 0.99 225 1.98 225 3 C150.75 3 76.5 3 0 3 C0 2.01 0 1.02 0 0 Z " fill="#4F4842" transform="translate(0,99)"/>
<path d="M0 0 C74.25 0 148.5 0 225 0 C225 0.99 225 1.98 225 3 C150.75 3 76.5 3 0 3 C0 2.01 0 1.02 0 0 Z " fill="#9E8F82" transform="translate(0,96)"/>
<path d="M0 0 C74.25 0 148.5 0 225 0 C225 0.99 225 1.98 225 3 C150.75 3 76.5 3 0 3 C0 2.01 0 1.02 0 0 Z " fill="#4F463F" transform="translate(0,93)"/>
<path d="M0 0 C74.25 0 148.5 0 225 0 C225 0.99 225 1.98 225 3 C150.75 3 76.5 3 0 3 C0 2.01 0 1.02 0 0 Z " fill="#9E8C7C" transform="translate(0,90)"/>
<path d="M0 0 C74.25 0 148.5 0 225 0 C225 0.99 225 1.98 225 3 C150.75 3 76.5 3 0 3 C0 2.01 0 1.02 0 0 Z " fill="#9A8F86" transform="translate(0,82)"/>
<path d="M0 0 C74.25 0 148.5 0 225 0 C225 0.99 225 1.98 225 3 C150.75 3 76.5 3 0 3 C0 2.01 0 1.02 0 0 Z " fill="#4B4744" transform="translate(0,71)"/>
<path d="M0 0 C74.25 0 148.5 0 225 0 C225 0.99 225 1.98 225 3 C150.75 3 76.5 3 0 3 C0 2.01 0 1.02 0 0 Z " fill="#93908F" transform="translate(0,36)"/>
<path d="M0 0 C74.25 0 148.5 0 225 0 C225 0.99 225 1.98 225 3 C150.75 3 76.5 3 0 3 C0 2.01 0 1.02 0 0 Z " fill="#8E8D8D" transform="translate(0,22)"/>
<path d="M0 0 C74.25 0 148.5 0 225 0 C225 0.99 225 1.98 225 3 C150.75 3 76.5 3 0 3 C0 2.01 0 1.02 0 0 Z " fill="#84888C" transform="translate(0,4)"/>
<path d="M0 0 C74.25 0 148.5 0 225 0 C225 0.99 225 1.98 225 3 C150.75 3 76.5 3 0 3 C0 2.01 0 1.02 0 0 Z " fill="#98928C" transform="translate(0,58)"/>
<path d="M0 0 C74.25 0 148.5 0 225 0 C225 0.99 225 1.98 225 3 C150.75 3 76.5 3 0 3 C0 2.01 0 1.02 0 0 Z " fill="#97928C" transform="translate(0,48)"/>
<path d="M0 0 C74.25 0 148.5 0 225 0 C225 0.99 225 1.98 225 3 C150.75 3 76.5 3 0 3 C0 2.01 0 1.02 0 0 Z " fill="#8E8B87" transform="translate(0,12)"/>
<path d="M0 0 C74.25 0 148.5 0 225 0 C225 0.99 225 1.98 225 3 C150.75 3 76.5 3 0 3 C0 2.01 0 1.02 0 0 Z " fill="#909599" transform="translate(0,130)"/>
<path d="M0 0 C74.25 0 148.5 0 225 0 C225 0.99 225 1.98 225 3 C150.75 3 76.5 3 0 3 C0 2.01 0 1.02 0 0 Z " fill="#919495" transform="translate(0,118)"/>
<path d="M0 0 C74.25 0 148.5 0 225 0 C225 0.99 225 1.98 225 3 C202.16044493 3.02359535 179.32089194 3.04110758 156.48132706 3.05181217 C145.87117347 3.05691955 135.26102756 3.06385303 124.65087891 3.07543945 C115.37887209 3.08555958 106.10687084 3.09189354 96.83485866 3.09408849 C91.94742692 3.09536695 87.06001106 3.09826244 82.17258453 3.10573006 C54.76794721 3.14599692 27.39474487 2.73964289 0 2 C0 1.34 0 0.68 0 0 Z " fill="#888C91" transform="translate(0,124)"/>
<path d="M0 0 C7.37901813 0.06154709 14.75804893 0.12150899 22.13708085 0.18137598 C37.25971515 0.30410136 52.38233345 0.42869908 67.50494152 0.55461836 C67.50494152 0.88461836 67.50494152 1.21461836 67.50494152 1.55461836 C51.66209923 1.6874881 35.81923871 1.81792956 19.97635514 1.94576979 C12.61388571 2.00523119 5.2514234 2.06539029 -2.11102527 2.12737226 C-101.03741664 2.95877846 -101.03741664 2.95877846 -136.55755848 2.05461836 C-138.64673916 2.00592256 -140.73593209 1.95774957 -142.8251366 1.91008711 C-147.71526989 1.79747632 -152.60519376 1.67832078 -157.49505848 1.55461836 C-157.49505848 1.22461836 -157.49505848 0.89461836 -157.49505848 0.55461836 C-149.4597104 0.42103147 -141.42431952 0.29052917 -133.38886589 0.16346693 C-129.6534873 0.10431416 -125.91812819 0.04428248 -122.18280262 -0.01813555 C-81.451283 -0.69663821 -40.73300614 -0.34002247 0 0 Z " fill="#1D2730" transform="translate(157.4950584769249,132.44538164138794)"/>
</svg>
